<svg width="204" height="179" viewBox="0 0 204 179" fill="none" xmlns="http://www.w3.org/2000/svg">
<path d="M98 48.9331C92.4 50.3998 48.4 68.1331 43.3333 71.0665C40.4 72.6665 38 74.9331 38 75.9998C38 77.1998 42.1333 79.7331 48 82.2665C58.8 86.9331 58.8 86.9331 57.2 97.9998L56.6667 102L78.4 110.266L100.133 118.666L117.067 112.133C126.4 108.533 134.933 105.2 136.267 104.666C138 104 138.667 105.066 139.867 110.666C140.667 114.533 142.8 121.333 144.533 125.866C148.667 136.266 150.933 145.066 150 146.666C149.6 147.333 150 148.266 150.8 148.666C151.6 149.2 152.533 148.266 152.933 146.666L153.733 143.6L156.133 146.8C158 149.333 158.8 149.733 160.133 148.266C161.333 147.066 161.467 146.666 160.267 146.666C159.467 146.666 158.133 145.466 157.333 143.866C156 141.333 156 141.2 158.533 142.533C161.733 144.266 164 144.4 164 142.8C164 142.133 161.733 140.4 159.067 139.066C156.4 137.733 153.067 135.2 151.733 133.333C149.067 129.6 143.333 114 142 106.533C141.2 102.4 141.6 101.733 144.4 100.4C147.067 99.1998 147.733 97.5998 148.533 91.0665L149.467 83.3331L157.733 79.5998C162.267 77.5998 167.467 74.6665 169.333 73.1998L172.667 70.6665L169.467 67.9998C164.667 63.8665 120.8 50.6665 106 48.9331C103.067 48.5331 99.4667 48.5331 98 48.9331ZM119.333 54.6665C143.6 60.2665 168.533 68.6665 167.2 70.9331C166.667 71.7331 159.333 75.5998 150.933 79.5998L135.6 86.9331L132.4 83.4665C130.667 81.5998 128.667 79.9998 128 79.9998C124.267 79.9998 127.867 77.4665 137.6 73.4665L148.533 68.7998L143.067 67.0665C137.733 65.1998 137.067 65.3331 127.467 69.7331C118 74.1331 117.2 74.2665 112.4 72.5331C105.867 70.2665 104 70.2665 104 72.3998C104 73.4665 106.533 74.6665 110.4 75.4665C114 76.1331 116.533 77.3331 116.4 78.2665C116.133 79.1998 116.933 79.5998 118 79.1998C118.933 78.7998 120.933 79.0665 122.267 79.8665C124.4 81.0665 124.133 81.4665 119.733 83.1998C112.933 86.1331 111.733 85.7331 117.333 82.5331C120.8 80.5331 121.2 80.1331 118.667 80.7998C114.4 81.8665 111.867 83.9998 112.8 85.4665C113.2 86.1331 112.667 86.6665 111.6 86.6665C110.533 86.6665 108.933 87.5998 108 88.6665C105.733 91.4665 106.4 91.1998 116.667 86.6665C125.2 82.7998 125.867 82.6665 128.933 84.7998C130.8 85.9998 131.733 87.3331 131.2 87.8665C130.533 88.5331 123.867 91.1998 116.533 93.9998L102.933 99.0665L90.5333 94.7998C72.5333 88.9331 41.3333 76.7998 41.3333 75.8665C41.3333 74.2665 80.5333 57.5998 94.6667 53.1998C102.667 50.7998 102.133 50.6665 119.333 54.6665ZM131.333 71.3331C119.6 77.0665 121.067 77.3331 133.6 71.8665C145.867 66.5331 146.8 67.7331 134.533 73.3331C127.067 76.7998 124.533 77.3331 122.267 76.2665C119.6 75.0665 120.133 74.5331 128 70.9331C132.8 68.6665 137.6 66.9331 138.667 66.9331C139.733 66.9331 136.533 68.9331 131.333 71.3331ZM145.733 90.9331C145.333 94.1331 144.133 97.4665 142.933 98.2665C141.2 99.7331 140.533 99.1998 139.067 94.9331C136.8 88.3998 136.8 88.3998 141.067 86.9331C146.4 84.9331 146.533 84.9331 145.733 90.9331ZM76.6667 93.3331C102.533 102.666 101.867 102.666 116.933 96.7998C135.067 89.7331 134 89.8665 135.867 94.5331C136.8 96.6665 137.333 99.1998 137.067 100.133C136.533 101.6 105.467 114.533 101.333 114.933C99.3333 115.2 62.8 101.733 60.9333 99.9998C60.1333 99.3331 61.0667 87.9998 61.8667 87.9998C62 87.9998 68.6667 90.3998 76.6667 93.3331Z" fill="#5800FF"/>
<path d="M110.933 59.0662C112.133 60.2662 113.6 62.5329 114 63.9996C115.067 67.1996 115.467 67.1996 121.2 64.1329C125.6 61.8662 125.6 61.7329 122.533 60.9329C120.8 60.3996 117.867 60.3996 116 60.7996C113.333 61.3329 113.067 61.1996 114.667 60.1329C115.867 59.3329 116 58.6662 115.067 58.6662C114.267 58.6662 112.4 58.2662 111.067 57.7329C108.8 56.9329 108.8 56.9329 110.933 59.0662Z" fill="#5800FF"/>
<path d="M121.466 65.4666C118.266 66.9333 115.999 68.3999 116.399 68.7999C116.799 69.1999 119.599 68.2666 122.666 66.6666C125.733 65.0666 128.799 63.9999 129.599 64.2666C130.399 64.5333 127.999 66.1333 124.133 67.8666C120.266 69.4666 117.333 71.0666 117.599 71.4666C117.999 71.7333 121.999 70.3999 126.533 68.3999C133.066 65.5999 134.399 64.5333 132.399 63.8666C128.933 62.3999 127.999 62.5333 121.466 65.4666Z" fill="#5800FF"/>
<path d="M139.333 74.6665C125.867 81.0665 127.333 81.5999 141.6 75.3332C147.467 72.6665 152.533 70.7999 152.933 71.0665C153.2 71.3332 148.8 73.5999 143.333 75.9999C137.867 78.3999 133.467 80.6665 133.733 80.9332C134 81.1999 139.6 79.1999 146 76.3999C155.333 72.5332 157.2 71.3332 155.2 70.5332C151.333 69.0665 150.8 69.1999 139.333 74.6665Z" fill="#5800FF"/>
</svg>
